<svg width="154" height="42" viewBox="0 0 154 42" fill="none" xmlns="http://www.w3.org/2000/svg">
  <defs>
    <linearGradient id="icon" x1="10" y1="10" x2="30" y2="31" gradientUnits="userSpaceOnUse">
      <stop stop-color="#38BDF8"/>
      <stop offset="1" stop-color="#229ED9"/>
    </linearGradient>
    <linearGradient id="border" x1="0" y1="0" x2="154" y2="42" gradientUnits="userSpaceOnUse">
      <stop stop-color="#2A6E98"/>
      <stop offset="0.55" stop-color="#1D4058"/>
      <stop offset="1" stop-color="#152B3B"/>
    </linearGradient>
  </defs>

  <rect x="0.75" y="0.75" width="152.5" height="40.5" rx="11.25" fill="#0B1118"/>
  <rect x="0.75" y="0.75" width="152.5" height="40.5" rx="11.25" stroke="url(#border)" stroke-width="1.5"/>

  <rect x="8" y="9" width="2" height="24" rx="1" fill="#38BDF8" opacity="0.9"/>

  <circle cx="24" cy="21" r="10" fill="url(#icon)"/>
  <path d="M18.9 20.6L28.5 16.9C29 16.7 29.4 17.1 29.3 17.6L27.8 24.7C27.7 25.2 27.3 25.4 26.9 25.1L24.6 23.4L23.4 24.6C23.3 24.8 23.1 24.9 22.9 24.9L23.1 22.4L27.5 18.4C27.7 18.2 27.4 18.1 27.2 18.3L21.7 21.7L19.3 21C18.9 20.9 18.9 20.7 18.9 20.6Z" fill="white"/>

  <text x="42" y="26"
        fill="#F0F6FC"
        font-family="Segoe UI, Arial, sans-serif"
        font-size="15"
        font-weight="600">
    @RomkaKub
  </text>

  <path d="M134 8H145" stroke="#38BDF8" stroke-width="1.5" stroke-linecap="round" opacity="0.7"/>
</svg>